<?xml version="1.0" encoding="UTF-8"?>
<svg version="1.1" xmlns="http://www.w3.org/2000/svg" width="163" height="190">
<path d="M0 0 C11.70862039 9.74663536 21.28318588 24.25851158 23.25 39.6875 C24.63792793 57.27582882 22.4430191 74.10668373 11.14453125 88.33984375 C8.92489242 90.88039422 6.62896913 93.2962046 4.25 95.6875 C3.65832031 96.31398438 3.06664063 96.94046875 2.45703125 97.5859375 C-1.74553933 101.68645891 -6.49964775 104.34999061 -11.6875 107 C-12.34371338 107.33789551 -12.99992676 107.67579102 -13.67602539 108.02392578 C-27.28453059 114.66427112 -45.15724541 115.12237562 -59.5 110.5625 C-76.52227391 104.63701149 -89.66224011 92.48922264 -97.5625 76.3125 C-104.93553371 58.72681826 -104.39014367 40.88798006 -97.4296875 23.36328125 C-91.73198698 11.20507332 -82.92131614 0.77315807 -70.75 -5.3125 C-72.07 -6.6325 -73.39 -7.9525 -74.75 -9.3125 C-72.77 -10.3025 -70.79 -11.2925 -68.75 -12.3125 C-68.255 -9.8375 -68.255 -9.8375 -67.75 -7.3125 C-66.73679688 -7.66183594 -65.72359375 -8.01117188 -64.6796875 -8.37109375 C-63.32820771 -8.83097229 -61.97664053 -9.29059409 -60.625 -9.75 C-59.95984375 -9.98009766 -59.2946875 -10.21019531 -58.609375 -10.44726562 C-38.49877118 -17.24938162 -16.8707463 -12.41594958 0 0 Z M-12.67364502 26.13012695 C-13.33982849 26.80519287 -14.00601196 27.48025879 -14.69238281 28.17578125 C-15.45286926 28.93656982 -16.21335571 29.6973584 -16.99688721 30.48120117 C-17.80744568 31.31240479 -18.61800415 32.1436084 -19.453125 33 C-20.29091492 33.84344971 -21.12870483 34.68689941 -21.99188232 35.5559082 C-24.67076476 38.25721616 -27.33542313 40.97208707 -30 43.6875 C-31.81158138 45.51913818 -33.62407028 47.34987926 -35.4375 49.1796875 C-39.88559048 53.6719275 -44.32207434 58.17538743 -48.75 62.6875 C-51.98556016 61.1536648 -54.04234492 59.58130163 -56.5 56.95703125 C-57.1909375 56.23708984 -57.881875 55.51714844 -58.59375 54.77539062 C-60.03711156 53.25227811 -61.47458502 51.72356515 -62.90625 50.18945312 C-63.5971875 49.47337891 -64.288125 48.75730469 -65 48.01953125 C-65.62390625 47.35671143 -66.2478125 46.6938916 -66.890625 46.01098633 C-68.6593366 44.44683661 -68.6593366 44.44683661 -70.86206055 44.88623047 C-73.24112614 45.89594123 -74.72154194 47.19004755 -76.5625 49 C-77.18769531 49.59425781 -77.81289062 50.18851563 -78.45703125 50.80078125 C-79.98505859 52.57801992 -79.98505859 52.57801992 -79.487854 54.62113953 C-78.24342364 58.10616733 -75.48408187 60.44231091 -72.921875 63.01953125 C-72.3358551 63.61553635 -71.74983521 64.21154144 -71.14605713 64.8256073 C-69.90587506 66.08095951 -68.66160557 67.33228499 -67.41357422 68.57983398 C-65.50493817 70.49504482 -63.62157154 72.43294801 -61.73828125 74.37304688 C-60.5301204 75.59000735 -59.32053149 76.8055521 -58.109375 78.01953125 C-57.54772644 78.60273636 -56.98607788 79.18594147 -56.40740967 79.78681946 C-54.63075887 81.60054785 -54.63075887 81.60054785 -51.75 83.6875 C-47.16112896 83.52505767 -45.02927658 81.48068513 -41.85205078 78.33886719 C-41.39129654 77.88833481 -40.9305423 77.43780243 -40.45582581 76.97361755 C-38.94187577 75.48737895 -37.44315529 73.98683329 -35.9453125 72.484375 C-34.89675011 71.44358863 -33.84774242 70.40325071 -32.79830933 69.36334229 C-30.60443873 67.1843769 -28.41845768 64.99784503 -26.23730469 62.80615234 C-23.43951042 59.99674517 -20.61959371 57.21077669 -17.79292488 54.43046188 C-15.62235087 52.2893237 -13.46576014 50.13452119 -11.31298447 47.97550201 C-10.27861719 46.94216231 -9.23950631 45.91354863 -8.19565201 44.8897934 C-6.74003115 43.45879904 -5.30525485 42.00669379 -3.87158203 40.55371094 C-2.63844772 39.3224649 -2.63844772 39.3224649 -1.38040161 38.06634521 C0.53313933 35.79656846 0.53313933 35.79656846 0.08694458 32.99591064 C-0.8088708 30.52512607 -1.69474617 29.2049259 -3.5625 27.375 C-4.06394531 26.86324219 -4.56539063 26.35148437 -5.08203125 25.82421875 C-7.87185555 23.92295676 -10.04043611 24.15536648 -12.67364502 26.13012695 Z " fill="#009A90" transform="translate(120.75,47.3125)"/>
<path d="M0 0 C2.86914939 1.33062 3.85369671 2.47809363 6 5 C7.27298235 9.11847231 7.29220314 11.20028616 5.8125 15.25 C2.94086957 19.60695652 2.94086957 19.60695652 0 21 C-3.10942544 21.5250437 -5.8989438 21.60805024 -9 21 C-11.75569447 18.81840855 -13.43588747 17.12822506 -15 14 C-15.37712577 9.00308353 -15.09290612 6.00932275 -12 2 C-7.95652092 -0.69565272 -4.74847801 -0.77658243 0 0 Z " fill="#009B90" transform="translate(134,0)"/>
<path d="M0 0 C3.5 0.25 3.5 0.25 5.5 2.25 C5.75 5.75 5.75 5.75 5.5 9.25 C3.5 11.25 3.5 11.25 0 11.5 C-3.5 11.25 -3.5 11.25 -5.5 9.25 C-5.75 5.75 -5.75 5.75 -5.5 2.25 C-3.5 0.25 -3.5 0.25 0 0 Z " fill="#009B8F" transform="translate(5.5,62.75)"/>
<path d="M0 0 C0.33 4.29 0.66 8.58 1 13 C-3.60057086 12.07988583 -6.79672559 10.89559434 -11 9 C-4.5 0 -4.5 0 0 0 Z " fill="#00988E" transform="translate(54,177)"/>
<path d="M0 0 C1.65 0 3.3 0 5 0 C6.125 4.75 6.125 4.75 5 7 C3.35 7 1.7 7 0 7 C0 4.69 0 2.38 0 0 Z " fill="#009B8E" transform="translate(136,170)"/>
<path d="M0 0 C-0.66 2.64 -1.32 5.28 -2 8 C-4.04119788 6.38405168 -6.04072937 4.7143618 -8 3 C-8 2.34 -8 1.68 -8 1 C-5.10765685 0.17361624 -3.11257569 0 0 0 Z " fill="#009389" transform="translate(163,100)"/>
</svg>
