<?xml version="1.0" encoding="UTF-8"?>
<svg version="1.1" xmlns="http://www.w3.org/2000/svg" width="415" height="197">
<path d="M0 0 C0.71382339 0.33000504 1.42764679 0.66001007 2.1631012 1.00001526 C4.44661331 2.05698649 6.7254564 3.12357227 9.00390625 4.19140625 C11.95914295 5.56898861 14.9164618 6.94202338 17.875 8.3125 C18.62300873 8.65952972 19.37101746 9.00655945 20.14169312 9.36410522 C30.2035519 14.00677946 40.38874525 18.3725618 50.56640625 22.75390625 C50.66915368 29.97220473 50.73842683 37.1903098 50.78613281 44.40917969 C50.80605341 46.8568425 50.83319986 49.30445898 50.86816406 51.75195312 C51.1144997 69.45913811 51.01371751 86.76580311 42.69140625 102.87890625 C42.34916016 103.57556396 42.00691406 104.27222168 41.65429688 104.98999023 C39.12023796 110.01622767 36.22317918 114.45719805 32.56640625 118.75390625 C33.19546875 118.96144531 33.82453125 119.16898437 34.47265625 119.3828125 C42.46889022 122.26097503 48.97172601 126.11382593 53.06640625 133.81640625 C55.70707308 140.75555765 55.83186833 148.5823609 53.68359375 155.6640625 C50.48007807 162.69694627 45.97769334 166.66536313 39.50390625 170.62890625 C33.03761359 173.04648414 25.17904767 172.84205126 18.6484375 170.875 C11.54975024 167.62098753 7.43259137 163.11303946 3.69140625 156.37890625 C2.34061959 152.02637147 2.29013857 148.26627831 2.56640625 143.75390625 C1.7671875 144.14964844 0.96796875 144.54539063 0.14453125 144.953125 C-7.01589774 148.15514782 -11.85054499 149.50941963 -19.39453125 147.03125 C-29.12178613 142.94280226 -37.56916441 137.785782 -45.43359375 130.75390625 C-46.26632813 130.01527344 -47.0990625 129.27664062 -47.95703125 128.515625 C-63.40533409 113.99422033 -73.80402049 92.47146379 -74.52085876 71.1594696 C-74.54894527 68.07718353 -74.54598832 64.99644176 -74.53125 61.9140625 C-74.52983505 60.79196884 -74.5284201 59.66987518 -74.52696228 58.51377869 C-74.52138775 54.94796017 -74.50883991 51.38220563 -74.49609375 47.81640625 C-74.49107546 45.39127695 -74.48651313 42.96614666 -74.48242188 40.54101562 C-74.47142666 34.61195753 -74.45471395 28.68293646 -74.43359375 22.75390625 C-72.8169093 22.03439955 -71.20021487 21.31491529 -69.58348083 20.59552002 C-68.12866547 19.94817223 -66.6738834 19.30074961 -65.21913147 18.65325928 C-61.16561715 16.84958842 -57.11094991 15.04857821 -53.05419922 13.25219727 C-42.7508041 8.69147442 -42.7508041 8.69147442 -32.49028015 4.03544617 C-30.74683929 3.23429889 -29.00030036 2.43990422 -27.25366211 1.64575195 C-25.17202458 0.69822275 -23.09567013 -0.26102756 -21.02563477 -1.23364258 C-20.10065186 -1.65154053 -19.17566895 -2.06943848 -18.22265625 -2.5 C-17.43584473 -2.86424072 -16.6490332 -3.22848145 -15.83837891 -3.60375977 C-10.11590539 -5.1322702 -5.1022141 -2.414148 0 0 Z M18.56640625 42.75390625 C4.04640625 57.27390625 -10.47359375 71.79390625 -25.43359375 86.75390625 C-29.80029379 83.01102051 -33.86500816 79.43986973 -37.87109375 75.37890625 C-39.16853516 74.06792969 -39.16853516 74.06792969 -40.4921875 72.73046875 C-41.13285156 72.07820313 -41.77351563 71.4259375 -42.43359375 70.75390625 C-47.32289104 72.87517406 -47.32289104 72.87517406 -52.43359375 79.75390625 C-43.85359375 88.33390625 -35.27359375 96.91390625 -26.43359375 105.75390625 C-22.16630923 102.09623381 -18.16832489 98.61260219 -14.23266602 94.66650391 C-13.76347244 94.19745636 -13.29427887 93.72840881 -12.81086731 93.24514771 C-11.28819044 91.72178413 -9.7690688 90.19492947 -8.25 88.66796875 C-7.18405266 87.6001528 -6.1178817 86.53256003 -5.05149841 85.46517944 C-2.26609236 82.67598307 0.51629554 79.88379525 3.29803467 77.09094238 C6.14541689 74.2332705 8.99568611 71.37848123 11.84570312 68.5234375 C17.42207706 62.93638783 22.99526119 57.34616991 28.56640625 51.75390625 C27.65839005 50.62191272 26.73956799 49.49858262 25.81640625 48.37890625 C25.05070312 47.43917969 25.05070312 47.43917969 24.26953125 46.48046875 C22.40450312 44.4040353 22.40450312 44.4040353 18.56640625 42.75390625 Z " fill="#009B91" transform="translate(219.43359375,25.24609375)"/>
<path d="M0 0 C19.14 0 38.28 0 58 0 C58 23.1 58 46.2 58 70 C38.86 70 19.72 70 0 70 C0 46.9 0 23.8 0 0 Z " fill="#7DFFCA" transform="translate(0,28)"/>
<path d="M0 0 C8.2211036 0.29894922 13.66616929 3.57843691 19.375 9.4375 C24.29280441 17.19249926 25.0730172 23.81292894 24 33 C21.43036362 41.53119278 16.32741808 46.35056036 8.9375 50.875 C2.47120734 53.29257789 -5.38735858 53.08814501 -11.91796875 51.12109375 C-19.00014321 47.87465069 -23.09167123 43.37138082 -26.875 36.6875 C-29.71145101 27.3902439 -29.71145101 27.3902439 -28 23 C-24.8226815 20.35452702 -21.4874194 18.41053937 -17.90625 16.37109375 C-13.9115182 14.06027983 -10.6047193 11.27695581 -7.25 8.125 C-6.74952148 7.66037354 -6.24904297 7.19574707 -5.73339844 6.71704102 C-3.48462992 4.5819611 -1.72966315 2.59449473 0 0 Z " fill="#7DFECA" transform="translate(250,145)"/>
<path d="M0 0 C3.5426931 0.02820616 4.63090304 0.2380644 7.75 2.1875 C11.07530877 5.72064057 11.08074386 8.35911263 11.04296875 13.05078125 C10.61344199 16.3667278 9.14075646 18.06237627 6.75 20.3125 C3.28003768 22.04748116 -0.46507195 21.92044181 -4.25 21.3125 C-7.25 18.875 -7.25 18.875 -9.25 16.3125 C-9.58 15.9825 -9.91 15.6525 -10.25 15.3125 C-10.69166754 12.25868444 -10.73223087 9.36144358 -10.25 6.3125 C-7.8125 3.3125 -7.8125 3.3125 -5.25 1.3125 C-3.69014791 -0.24735209 -2.16093902 0.06797656 0 0 Z " fill="#00998F" transform="translate(255.25,-0.3125)"/>
<path d="M0 0 C0.77943466 0.00222061 1.55886932 0.00444122 2.36192322 0.00672913 C3.68317955 0.00684242 3.68317955 0.00684242 5.03112793 0.00695801 C5.98841293 0.01211929 6.94569794 0.01728058 7.93199158 0.02259827 C9.39480812 0.02472069 9.39480812 0.02472069 10.88717651 0.02688599 C14.01542675 0.03250319 17.14360656 0.04505859 20.27183533 0.05775452 C22.38706867 0.0627673 24.50230313 0.06733059 26.61753845 0.07142639 C31.81482829 0.0824782 37.01207678 0.09923305 42.20933533 0.12025452 C42.20933533 2.10025452 42.20933533 4.08025452 42.20933533 6.12025452 C27.68933533 6.12025452 13.16933533 6.12025452 -1.79066467 6.12025452 C-2.12066467 4.47025452 -2.45066467 2.82025452 -2.79066467 1.12025452 C-1.79066467 0.12025452 -1.79066467 0.12025452 0 0 Z " fill="#7EFFCA" transform="translate(372.79066467285156,41.87974548339844)"/>
<path d="M0 0 C0.77943466 0.00222061 1.55886932 0.00444122 2.36192322 0.00672913 C3.68317955 0.00684242 3.68317955 0.00684242 5.03112793 0.00695801 C5.98841293 0.01211929 6.94569794 0.01728058 7.93199158 0.02259827 C9.39480812 0.02472069 9.39480812 0.02472069 10.88717651 0.02688599 C14.01542675 0.03250319 17.14360656 0.04505859 20.27183533 0.05775452 C22.38706867 0.0627673 24.50230313 0.06733059 26.61753845 0.07142639 C31.81482829 0.0824782 37.01207678 0.09923305 42.20933533 0.12025452 C42.20933533 2.10025452 42.20933533 4.08025452 42.20933533 6.12025452 C27.68933533 6.12025452 13.16933533 6.12025452 -1.79066467 6.12025452 C-2.12066467 4.47025452 -2.45066467 2.82025452 -2.79066467 1.12025452 C-1.79066467 0.12025452 -1.79066467 0.12025452 0 0 Z " fill="#7EFFC9" transform="translate(372.79066467285156,25.879745483398438)"/>
<path d="M0 0 C0.77943466 0.00222061 1.55886932 0.00444122 2.36192322 0.00672913 C3.68317955 0.00684242 3.68317955 0.00684242 5.03112793 0.00695801 C5.98841293 0.01211929 6.94569794 0.01728058 7.93199158 0.02259827 C9.39480812 0.02472069 9.39480812 0.02472069 10.88717651 0.02688599 C14.01542675 0.03250319 17.14360656 0.04505859 20.27183533 0.05775452 C22.38706867 0.0627673 24.50230313 0.06733059 26.61753845 0.07142639 C31.81482829 0.0824782 37.01207678 0.09923305 42.20933533 0.12025452 C42.20933533 2.10025452 42.20933533 4.08025452 42.20933533 6.12025452 C27.68933533 6.12025452 13.16933533 6.12025452 -1.79066467 6.12025452 C-2.12066467 4.47025452 -2.45066467 2.82025452 -2.79066467 1.12025452 C-1.79066467 0.12025452 -1.79066467 0.12025452 0 0 Z " fill="#7EFFCA" transform="translate(372.79066467285156,9.879745483398438)"/>
<path d="M0 0 C3.32859708 3.04875927 5.50435293 6.21910958 7.75 10.125 C8.67039062 11.70667969 8.67039062 11.70667969 9.609375 13.3203125 C11 16 11 16 11 18 C4.07 18 -2.86 18 -10 18 C-8.37091984 13.92729961 -6.65110493 10.50249938 -4.4375 6.75 C-3.81746094 5.69296875 -3.19742187 4.6359375 -2.55859375 3.546875 C-1 1 -1 1 0 0 Z " fill="#7DFFC9" transform="translate(339,93)"/>
<path d="M0 0 C1.175625 0.0825 2.35125 0.165 3.5625 0.25 C5.5625 3.25 5.5625 3.25 5.25 6.875 C4.5625 10.25 4.5625 10.25 3.5625 11.25 C0.1875 11.625 0.1875 11.625 -3.4375 11.25 C-5.5 9.0625 -5.5 9.0625 -6.4375 6.25 C-5.20027221 1.71349809 -4.74952358 0.3454199 0 0 Z " fill="#009A90" transform="translate(131.4375,62.75)"/>
<path d="M0 0 C0.33 4.29 0.66 8.58 1 13 C-3.60057086 12.07988583 -6.79672559 10.89559434 -11 9 C-11 8.34 -11 7.68 -11 7 C-8.84765625 5.2734375 -8.84765625 5.2734375 -6.0625 3.375 C-5.14597656 2.74335938 -4.22945312 2.11171875 -3.28515625 1.4609375 C-1 0 -1 0 0 0 Z " fill="#00998F" transform="translate(180,177)"/>
<path d="M0 0 C-0.66 2.64 -1.32 5.28 -2 8 C-4.04119788 6.38405168 -6.04072937 4.7143618 -8 3 C-8 2.34 -8 1.68 -8 1 C-5.07175348 0.02391783 -3.04386724 -0.08226668 0 0 Z " fill="#00948B" transform="translate(289,100)"/>
<path d="M0 0 C2.0625 0.4375 2.0625 0.4375 4 1 C4 2.65 4 4.3 4 6 C2.0625 6.5625 2.0625 6.5625 0 7 C-1 6 -1 6 -1.125 3.5 C-1 1 -1 1 0 0 Z " fill="#47D4B2" transform="translate(263,170)"/>
</svg>
