<svg xmlns="http://www.w3.org/2000/svg" width="133" height="129.971" viewBox="0 0 133 129.971">
  <g id="Group_834" data-name="Group 834" transform="translate(-142 -252.686)">
    <path id="Subtraction_1" data-name="Subtraction 1" d="M2024.5-2821.961a51.669,51.669,0,0,1-20.24-4.086,51.825,51.825,0,0,1-16.529-11.144,51.829,51.829,0,0,1-11.144-16.529,51.676,51.676,0,0,1-4.086-20.241,51.676,51.676,0,0,1,4.086-20.241,51.828,51.828,0,0,1,11.144-16.529,51.824,51.824,0,0,1,16.529-11.144,51.669,51.669,0,0,1,20.24-4.086,51.67,51.67,0,0,1,20.241,4.086,51.822,51.822,0,0,1,16.529,11.144,51.824,51.824,0,0,1,11.144,16.529,51.672,51.672,0,0,1,4.086,20.241,51.672,51.672,0,0,1-4.086,20.241,51.825,51.825,0,0,1-11.144,16.529,51.825,51.825,0,0,1-16.529,11.144A51.67,51.67,0,0,1,2024.5-2821.961Zm-12.079-58.38a4.031,4.031,0,0,0-4.027,4.027v19.326a4.031,4.031,0,0,0,4.027,4.027h24.159a4.031,4.031,0,0,0,4.027-4.027v-19.326a4.031,4.031,0,0,0-4.027-4.027h-2.416v-4.7a9.781,9.781,0,0,0-9.533-9.795h-.128a9.677,9.677,0,0,0-9.667,9.665v4.832ZM2024.5-2859.4a1.411,1.411,0,0,1-1.409-1.411v-6.966a3.214,3.214,0,0,1-1.8-3.19,3.247,3.247,0,0,1,2.98-2.92c.077-.005.154-.008.229-.008a3.225,3.225,0,0,1,3.224,3.219,3.2,3.2,0,0,1-1.813,2.9v6.926a1.433,1.433,0,0,1-1.338,1.45Zm6.846-20.939h-13.69v-4.832a6.794,6.794,0,0,1,2.013-4.832,6.79,6.79,0,0,1,4.831-2.013,6.8,6.8,0,0,1,4.832,2.013,6.794,6.794,0,0,1,2.013,4.832v4.831Z" transform="translate(-1817.5 3201.961)" fill="#009b91"/>
    <circle id="Ellipse_32" data-name="Ellipse 32" cx="9.5" cy="9.5" r="9.5" transform="translate(142 282)" fill="#009b91" opacity="0.3"/>
    <circle id="Ellipse_33" data-name="Ellipse 33" cx="6.5" cy="6.5" r="6.5" transform="translate(262 294)" fill="#009b91" opacity="0.4"/>
    <rect id="Rectangle_24" data-name="Rectangle 24" width="8" height="8" transform="translate(212.657 252.686) rotate(45)" fill="#009b91" opacity="0.3"/>
    <rect id="Rectangle_25" data-name="Rectangle 25" width="8" height="8" transform="translate(256.343 371.343) rotate(45)" fill="#009b91" opacity="0.3"/>
    <path id="Polygon_1" data-name="Polygon 1" d="M9,0l9,15H0Z" transform="translate(142 360)" fill="#009b91" opacity="0.3"/>
  </g>
</svg>
