<svg xmlns="http://www.w3.org/2000/svg" width="25.692" height="25.692" viewBox="15.255 13.649 25.692 25.692"><path d="M28.1 34.524c5.766 0 10.438-4.672 10.438-10.438 0-5.765-4.672-10.437-10.437-10.437-5.766 0-10.438 4.672-10.438 10.437 0 5.766 4.672 10.438 10.438 10.438Zm-1.113-15.988v-.843a.83.83 0 0 1 .833-.833h.557a.83.83 0 0 1 .833.833v.853c.777.04 1.53.307 2.157.773a.563.563 0 0 1 .06.858l-.817.778c-.191.186-.477.19-.703.05a1.652 1.652 0 0 0-.893-.256h-1.952c-.452 0-.818.412-.818.919 0 .411.25.777.607.883l3.126.938c1.29.387 2.193 1.626 2.193 3.016 0 1.706-1.325 3.086-2.965 3.131v.843a.83.83 0 0 1-.833.833h-.557a.83.83 0 0 1-.833-.833v-.853a3.956 3.956 0 0 1-2.158-.773.563.563 0 0 1-.06-.858l.818-.778c.19-.185.476-.19.702-.05.271.17.572.256.893.256h1.952c.452 0 .818-.411.818-.918 0-.412-.25-.778-.607-.883l-3.126-.939c-1.29-.386-2.193-1.625-2.193-3.015.005-1.707 1.325-3.086 2.966-3.132ZM39.34 31.312h-1.63a12.162 12.162 0 0 1-3.664 3.212h3.201c.266 0 .482.18.482.401v.803c0 .22-.216.401-.482.401h-18.3c-.266 0-.482-.18-.482-.401v-.803c0-.22.216-.401.482-.401h3.201a12.222 12.222 0 0 1-3.663-3.212H16.86c-.888 0-1.605.718-1.605 1.606v4.817c0 .888.717 1.606 1.605 1.606h22.48c.89 0 1.607-.718 1.607-1.606v-4.817c0-.888-.718-1.606-1.606-1.606Z" fill="#fff" fill-rule="evenodd" data-name="Icon awesome-donate"/></svg>