<svg width="24" height="24" viewBox="0 0 24 24" fill="none" xmlns="http://www.w3.org/2000/svg">
<path d="M12.005 22.0031C6.48201 22.0031 2.005 17.5261 2.005 12.0031C2.005 6.48005 6.48201 2.00305 12.005 2.00305C17.528 2.00305 22.005 6.48005 22.005 12.0031C22.005 17.5261 17.528 22.0031 12.005 22.0031ZM12.005 20.0031C14.1267 20.0031 16.1616 19.1602 17.6619 17.6599C19.1621 16.1596 20.005 14.1248 20.005 12.0031C20.005 9.88132 19.1621 7.84649 17.6619 6.3462C16.1616 4.84591 14.1267 4.00305 12.005 4.00305C9.88327 4.00305 7.84844 4.84591 6.34815 6.3462C4.84786 7.84649 4.005 9.88132 4.005 12.0031C4.005 14.1248 4.84786 16.1596 6.34815 17.6599C7.84844 19.1602 9.88327 20.0031 12.005 20.0031ZM7.005 13.0031H16.005V15.0031H12.005V18.0031L7.005 13.0031ZM12.005 9.00305V6.00305L17.005 11.0031H8.005V9.00305H12.005Z" fill="white"/>
</svg>
