<svg xmlns="http://www.w3.org/2000/svg" width="21.386" height="21.379" viewBox="7 0 21.386 21.379"><g data-name="Icon ionic-ios-home"><path d="M17.82 2.883a.202.202 0 0 0-.258 0L9.545 9.297a.216.216 0 0 0-.077.16v11.82c0 .056.046.102.103.102h5.55a.103.103 0 0 0 .103-.102v-7.195c0-.057.046-.103.103-.103h4.728c.056 0 .102.046.102.103v7.195c0 .056.047.102.103.102h5.55a.103.103 0 0 0 .103-.102V9.457a.208.208 0 0 0-.077-.16L17.82 2.883Z" fill="#fff" fill-rule="evenodd" data-name="Path 14"/><path d="M28.108 8.028 18.395.247A1.119 1.119 0 0 0 17.69 0c-.257 0-.51.087-.704.247l-4.23 3.438V1.516a.103.103 0 0 0-.103-.103H9.571a.103.103 0 0 0-.103.103v4.739L7.273 8.058a.725.725 0 0 0-.272.525.727.727 0 0 0 .21.55.724.724 0 0 0 .961.051l9.452-7.606c.025-.02.046-.02.067-.02.02 0 .04.004.066.02l9.452 7.575a.724.724 0 0 0 1.176-.601.73.73 0 0 0-.277-.524Z" fill="#fff" fill-rule="evenodd" data-name="Path 15"/></g></svg>