<svg xmlns="http://www.w3.org/2000/svg" width="17.094" height="21.379" viewBox="25.453 0 17.094 21.379"><g data-name="Icon ionic-ios-notifications"><path d="M33.99 21.38c1.661 0 2.57-1.176 2.57-2.833h-5.146c0 1.657.908 2.832 2.575 2.832Z" fill="#fff" fill-rule="evenodd" data-name="Path 18"/><path d="M42.33 15.833c-.822-1.085-2.442-1.72-2.442-6.578 0-4.985-2.201-6.99-4.253-7.47-.192-.048-.331-.112-.331-.315v-.155C35.304.599 34.716-.005 34 0c-.716-.01-1.304.599-1.304 1.315v.155c0 .197-.139.267-.331.315-2.057.486-4.254 2.485-4.254 7.47 0 4.857-1.619 5.488-2.442 6.578-.529.7-.026 1.7.85 1.7H41.486c.871 0 1.373-1.005.844-1.7Z" fill="#fff" fill-rule="evenodd" data-name="Path 19"/></g></svg>