<svg xmlns="http://www.w3.org/2000/svg" width="21.379" height="21.379" viewBox="8.31 0 21.379 21.379"><path d="M19 0C13.475 0 8.932 4.189 8.372 9.564a10.185 10.185 0 0 0 0 2.251c.56 5.376 5.103 9.564 10.628 9.564 5.905 0 10.69-4.784 10.69-10.69C29.69 4.786 24.905 0 19 0Zm6.98 16.76a73.376 73.376 0 0 0-4.236-1.44c-.123-.036-.138-.046-.138-.55 0-.416.17-.837.339-1.197a5.973 5.973 0 0 0 .473-1.624c.215-.252.514-.745.699-1.691.164-.833.087-1.136-.021-1.418-.01-.031-.026-.062-.03-.088-.042-.195.015-1.208.158-1.994.098-.54-.025-1.686-.765-2.636-.468-.602-1.367-1.337-3.007-1.44h-.9c-1.613.103-2.507.838-2.98 1.44-.745.95-.868 2.097-.77 2.636.143.786.2 1.799.159 1.994-.01.036-.021.062-.031.093-.108.282-.19.586-.02 1.418.19.946.482 1.44.698 1.691a6.22 6.22 0 0 0 .473 1.624c.133.283.195.668.195 1.213 0 .509-.02.514-.133.55-1.218.36-3.027.997-4.112 1.428a9.17 9.17 0 0 1-2.282-6.08 9.19 9.19 0 0 1 2.709-6.542A9.19 9.19 0 0 1 19 1.44a9.19 9.19 0 0 1 6.542 2.708 9.19 9.19 0 0 1 2.709 6.543 9.166 9.166 0 0 1-2.272 6.07Z" fill="#fff" fill-rule="evenodd" data-name="Icon ionic-ios-contact"/></svg>