<svg width="15" height="15" viewBox="0 0 15 15" fill="none" xmlns="http://www.w3.org/2000/svg">
<g clip-path="url(#clip0_1302_4)">
<path d="M5.5 2.35047e-05C5.0336 -0.0111296 4.56968 0.0711015 4.13552 0.24188C3.70137 0.412658 3.30575 0.668534 2.97194 0.994457C2.63813 1.32038 2.37287 1.70977 2.19176 2.13972C2.01065 2.56966 1.91735 3.03149 1.91735 3.49802C1.91735 3.96456 2.01065 4.42638 2.19176 4.85633C2.37287 5.28628 2.63813 5.67567 2.97194 6.00159C3.30575 6.32751 3.70137 6.58339 4.13552 6.75417C4.56968 6.92495 5.0336 7.00718 5.5 6.99602C5.9664 7.00718 6.43032 6.92495 6.86448 6.75417C7.29863 6.58339 7.69425 6.32751 8.02806 6.00159C8.36187 5.67567 8.62713 5.28628 8.80824 4.85633C8.98935 4.42638 9.08265 3.96456 9.08265 3.49802C9.08265 3.03149 8.98935 2.56966 8.80824 2.13972C8.62713 1.70977 8.36187 1.32038 8.02806 0.994457C7.69425 0.668534 7.29863 0.412658 6.86448 0.24188C6.43032 0.0711015 5.9664 -0.0111296 5.5 2.35047e-05ZM3.5 8.99402C2.57174 8.99402 1.6815 9.36277 1.02513 10.0191C0.368749 10.6755 0 11.5658 0 12.494L0 14.991H11V12.494C11 11.5658 10.6313 10.6755 9.97487 10.0191C9.3185 9.36277 8.42826 8.99402 7.5 8.99402H3.5ZM12.5 10H12V15H15V12.5C15 11.837 14.7366 11.2011 14.2678 10.7323C13.7989 10.2634 13.163 10 12.5 10Z" fill="white"/>
<path d="M11.5 4C10.837 4 10.2011 4.26339 9.73223 4.73223C9.26339 5.20107 9 5.83696 9 6.5C9 7.16304 9.26339 7.79893 9.73223 8.26777C10.2011 8.73661 10.837 9 11.5 9C12.163 9 12.7989 8.73661 13.2678 8.26777C13.7366 7.79893 14 7.16304 14 6.5C14 5.83696 13.7366 5.20107 13.2678 4.73223C12.7989 4.26339 12.163 4 11.5 4Z" fill="white"/>
</g>
<defs>
<clipPath id="clip0_1302_4">
<rect width="15" height="15" fill="white"/>
</clipPath>
</defs>
</svg>
