<svg xmlns="http://www.w3.org/2000/svg" width="27.297" height="25.692" viewBox="14.271 13.649 27.297 25.692"><path d="m27.197 20.89 2.51.717c.18.05.305.221.305.407 0 .23-.19.421-.421.421h-1.646c-.18 0-.356-.04-.517-.11-.24-.11-.522-.085-.707.1l-.878.878c-.266.266-.236.718.075.924a3.667 3.667 0 0 0 1.595.577v.888c0 .441.362.803.803.803h.803a.805.805 0 0 0 .803-.803v-.883a2.823 2.823 0 0 0 2.474-3.162c-.146-1.154-1.039-2.072-2.153-2.393l-2.509-.718a.425.425 0 0 1-.306-.406c0-.231.19-.422.422-.422h1.646c.18 0 .356.04.516.11.241.111.522.086.708-.1l.878-.878c.266-.266.236-.717-.075-.923a3.667 3.667 0 0 0-1.596-.577v-.888a.805.805 0 0 0-.803-.803h-.803a.805.805 0 0 0-.803.803v.883a2.823 2.823 0 0 0-2.473 3.161c.145 1.154 1.038 2.073 2.152 2.394Zm13.865 9.223c-.562-.537-1.43-.502-2.022 0l-4.376 3.708a2.918 2.918 0 0 1-1.897.702h-5.605c-.416 0-.757-.361-.757-.803 0-.441.34-.802.757-.802h3.708c.758 0 1.456-.547 1.576-1.335.156-1.004-.577-1.877-1.495-1.877h-7.582c-1.28 0-2.52.467-3.508 1.32l-2.203 1.892h-2.63c-.416 0-.757.36-.757.802v4.818c0 .441.341.803.758.803h16.905c.688 0 1.355-.246 1.897-.703l7.166-6.072c.722-.607.777-1.771.065-2.453Z" fill="#fff" fill-rule="evenodd" data-name="Icon awesome-hand-holding-usd"/></svg>