<svg xmlns="http://www.w3.org/2000/svg" width="23.16" height="21.379" viewBox="6.42 0 23.16 21.379"><g data-name="Icon ionic-ios-wallet"><path d="M26.24 5.345H9.76a3.343 3.343 0 0 0-3.34 3.34v9.354a3.343 3.343 0 0 0 3.34 3.34h16.48a3.343 3.343 0 0 0 3.34-3.34V8.686a3.343 3.343 0 0 0-3.34-3.34Z" fill="#fff" fill-rule="evenodd" data-name="Path 16"/><path d="M22.838.056 9.76 2.612c-1.002.222-2.45 1.23-2.45 2.455 0 0 .836-1.058 2.729-1.058h15.978V2.868c0-.702-.278-1.598-.774-2.094a2.633 2.633 0 0 0-2.405-.718Z" fill="#fff" fill-rule="evenodd" data-name="Path 17"/></g></svg>