<svg xmlns="http://www.w3.org/2000/svg" width="19.579" height="25.692" viewBox="18.739 13.649 19.579 25.692"><path d="m29.395 14.004 8.564 8.565c.765.765.23 2.09-.866 2.09h-4.894v6.933a1.22 1.22 0 0 1-1.224 1.224h-4.894a1.22 1.22 0 0 1-1.223-1.224V24.66h-4.894c-1.091 0-1.631-1.32-.867-2.09l8.565-8.565a1.234 1.234 0 0 1 1.733 0Zm8.31 15.549h-2.04a.614.614 0 0 0-.611.612v4.282a1.63 1.63 0 0 1-1.632 1.631h-9.788a1.63 1.63 0 0 1-1.631-1.631v-4.282a.614.614 0 0 0-.612-.612h-2.039a.614.614 0 0 0-.612.612v4.282a4.895 4.895 0 0 0 4.894 4.894h9.788a4.895 4.895 0 0 0 4.894-4.894v-4.282a.614.614 0 0 0-.612-.612Z" fill="#fff" fill-rule="evenodd" data-name="Icon awesome-sign-out-alt"/></svg>