<?xml version="1.0" encoding="UTF-8"?>
<svg version="1.1" xmlns="http://www.w3.org/2000/svg" width="287" height="203">
<path d="M0 0 C94.71 0 189.42 0 287 0 C287 66.99 287 133.98 287 203 C192.29 203 97.58 203 0 203 C0 136.01 0 69.02 0 0 Z " fill="#0DD3DF" transform="translate(0,0)"/>
<path d="M0 0 C34.98 0 69.96 0 106 0 C106 66.99 106 133.98 106 203 C51.22 203 -3.56 203 -60 203 C-56.2382418 198.61128209 -52.63008903 194.50571774 -48.57095337 190.45069885 C-48.05946633 189.93835739 -47.54797929 189.42601592 -47.02099264 188.89814895 C-45.32836576 187.20389174 -43.63222102 185.51320334 -41.93603516 183.82250977 C-40.71327585 182.60003288 -39.49073739 181.37733506 -38.2684021 180.1544342 C-34.96531251 176.85105881 -31.65915834 173.5507663 -28.35242891 170.25103498 C-24.89130809 166.7961838 -21.43303659 163.33848285 -17.97445679 159.88108826 C-11.43179074 153.34152489 -4.88658071 146.8045139 1.65955603 140.26842493 C9.11498019 132.82419495 16.56755032 125.37711055 24.01988673 117.92978966 C39.34342639 102.61669033 54.67053152 87.30716402 70 72 C66.01741263 67.22488979 61.85920901 62.72201014 57.44384766 58.34619141 C56.81874298 57.722547 56.19363831 57.09890259 55.54959106 56.45635986 C54.20520749 55.1157545 52.85967092 53.77630455 51.5130806 52.4379158 C49.38468718 50.32236442 47.2595025 48.20363576 45.13510132 46.08407593 C40.63454307 41.59489415 36.13004551 37.10967804 31.625 32.625 C26.38287349 27.40645294 21.14236247 22.18630466 15.9060173 16.96195602 C13.80733807 14.86978143 11.70568309 12.78062707 9.60391235 10.69155884 C8.32905713 9.42033292 7.05434029 8.1489682 5.77978516 6.87744141 C5.19076416 6.29358673 4.60174316 5.70973206 3.99487305 5.10818481 C2.64414151 3.75763299 1.31894413 2.38161221 0 1 C0 0.67 0 0.34 0 0 Z " fill="#00EAF0" transform="translate(181,0)"/>
</svg>
