<svg id="svg" version="1.1" xmlns="http://www.w3.org/2000/svg" xmlns:xlink="http://www.w3.org/1999/xlink" width="400" height="865.7004830917874" viewBox="0, 0, 400,865.7004830917874"><g id="svgg"><path id="path0" d="M0.000 157.400 C 0.000 243.970,0.144 314.800,0.321 314.800 C 0.497 314.800,2.432 313.614,4.621 312.165 C 22.878 300.073,45.812 296.063,75.400 299.788 C 77.820 300.093,81.690 300.548,84.000 300.800 C 86.310 301.052,90.450 301.559,93.200 301.926 C 100.587 302.912,121.165 302.878,126.200 301.872 C 132.850 300.543,133.784 300.289,138.000 298.669 C 160.777 289.915,172.015 266.525,171.996 227.911 C 171.983 204.014,174.271 173.728,177.225 158.685 C 181.231 138.290,192.259 121.060,208.026 110.563 C 217.438 104.297,232.649 98.343,245.200 96.012 C 246.630 95.746,249.060 95.275,250.600 94.965 C 254.896 94.101,259.975 93.245,267.000 92.203 C 300.924 87.170,321.845 71.885,330.613 45.726 C 335.325 31.668,335.735 12.954,331.583 1.500 L 331.039 -0.000 165.520 -0.000 L 0.000 0.000 0.000 157.400 " stroke="none" fill="#bee9e1" fill-rule="evenodd"></path><path id="path1" d="M331.390 0.900 C 336.637 17.569,335.100 37.823,327.391 53.600 C 316.720 75.438,297.593 87.664,267.000 92.203 C 259.975 93.245,254.896 94.101,250.600 94.965 C 249.060 95.275,246.630 95.746,245.200 96.012 C 232.649 98.343,217.438 104.297,208.026 110.563 C 192.259 121.060,181.231 138.290,177.225 158.685 C 174.271 173.728,171.983 204.014,171.996 227.911 C 172.015 266.525,160.777 289.915,138.000 298.669 C 133.784 300.289,132.850 300.543,126.200 301.872 C 121.165 302.878,100.587 302.912,93.200 301.926 C 90.450 301.559,86.310 301.052,84.000 300.800 C 81.690 300.548,77.820 300.093,75.400 299.788 C 45.812 296.063,22.878 300.073,4.621 312.165 C 2.432 313.614,0.497 314.800,0.321 314.800 C 0.144 314.800,0.000 438.730,0.000 590.200 L 0.000 865.600 200.000 865.600 L 400.000 865.600 400.000 432.800 L 400.000 0.000 365.553 0.000 L 331.107 0.000 331.390 0.900 " stroke="none" fill="#099a8f" fill-rule="evenodd"></path></g></svg>